stateDiagram-v2
    [*] --> pristine
    pristine --> dirty: INPUT
    dirty --> validating: VALIDATE
    validating --> valid: SUCCESS
    validating --> invalid: FAIL
    invalid --> dirty: INPUT
    valid --> submitting: SUBMIT
    submitting --> submitted: SUCCESS
    submitting --> valid: FAIL
    submitted --> [*]
